<?xml version="1.0" encoding="utf-8"?>
<!-- Generator: Adobe Illustrator 22.1.0, SVG Export Plug-In . SVG Version: 6.00 Build 0)  -->
<svg version="1.1" xmlns="http://www.w3.org/2000/svg" xmlns:xlink="http://www.w3.org/1999/xlink" x="0px" y="0px"
	 viewBox="0 0 1920 1080" style="enable-background:new 0 0 1920 1080;" xml:space="preserve">
<style type="text/css">
	.st0{display:none;}
	.st1{display:inline;fill:#726F6F;}
	.st2{display:inline;fill:#FFFFFF;}
	.st3{display:inline;fill:none;stroke:#FFFFFF;stroke-miterlimit:10;}
	.st4{display:inline;fill:#FCFCFC;}
	.st5{fill:#FFFFFF;}
	.st6{display:none;fill:#FFFFFF;}
	.st7{fill:none;stroke:#FFFFFF;stroke-width:10;stroke-miterlimit:10;}
	.st8{display:inline;}
	.st9{display:inline;fill:none;stroke:#FFFFFF;stroke-width:9;stroke-miterlimit:10;}
</style>
<g id="Back_Ground" class="st0">
	<rect x="-119.1" y="-112.9" class="st1" width="2238.5" height="1326.6"/>
</g>
<g id="TYE_Proto_2_Curves" class="st0">
	<path id="T_2_" class="st2" d="M718.5,350h463.1c10.2,0,18.5,8.3,18.5,18.5v13.1c0,10.2-8.3,18.5-18.5,18.5H975v431.5
		c0,10.2-8.3,18.5-18.5,18.5h-13.1c-10.2,0-18.5-8.3-18.5-18.5V400H718.5c-10.2,0-18.5-8.3-18.5-18.5v-13.1
		C700,358.3,708.3,350,718.5,350z"/>
	<path class="st2" d="M812.5,601.1V588c0-10.2,8.3-18.5,18.5-18.5H1069c10.2,0,18.5,8.3,18.5,18.5v13.1c0,10.2-8.3,18.5-18.5,18.5
		H831C820.8,619.5,812.5,611.3,812.5,601.1z"/>
	<path id="E_small_1_" class="st2" d="M863.4,831.5v-13.1c0-10.2,8.3-18.5,18.5-18.5h136.2c10.2,0,18.5,8.3,18.5,18.5v13.1
		c0,10.2-8.3,18.5-18.5,18.5H881.9C871.7,850,863.4,841.7,863.4,831.5z"/>
	<path id="Y_2_" class="st2" d="M1158.3,850L1158.3,850c-5.3,0-10.3-2.3-13.8-6.2L963.8,640.5c-7.3-8.3-20.2-8.3-27.6,0L755.5,843.8
		c-3.5,3.9-8.5,6.2-13.8,6.2h0c-16,0-24.4-19-13.7-30.9L936.3,590c7.3-8.1,20-8.1,27.3,0l208.3,229.1
		C1182.7,831,1174.3,850,1158.3,850z"/>
	<path class="st3" d="M1181.5,350"/>
</g>
<g id="TYE_Proto_Jap" class="st0">
	<path class="st2" d="M1176.8,350c-19.8,16.8-125.4,11.9-226.8,11.9s-206,5-226.8-11.9c-14.8,12.6-24.3,54.4,0,50
		c24.3-4.4,112.1-9.8,226.8-9.8s205.5,6.3,226.8,10.1c23.2,4.1,0-48.4,0-48.4"/>
	<path class="st2" d="M965.3,387.1c-8.2,11-6.2,437.9-0.4,452c-5,4.9-24.9,4-29.7-0.5c6.9-14.1,5.7-437.4,0-451.6H965.3z"/>
	<path class="st4" d="M824.5,569.2c-4.5,3.6-20.9,22.1-3.8,50.3c8.4-4.7,62.3-16.7,129.3-16.7s118.6,13.1,125.3,16.7
		c15.4-28.6,0.7-47-3.5-50.3c-18.5,8.1-68.6,7.6-121.8,7.6S849.5,577.4,824.5,569.2z"/>
	<path class="st2" d="M888.1,799.9c-16.1,23.2-14.6,40.5,0,50.1c4.4-2.4,28.1-4.9,61.9-4.9s58.9,0.3,68.1,4.9c6.2-5,16.8-12.5,0-50
		c-10,10.2-21.4,23.6-67.8,23.6S896,811.5,888.1,799.9z"/>
	<path class="st2" d="M950.7,584c-12.1,25.9-229.8,258.4-245.9,263.8c11.8,9.2,20.2,10.2,36.6,0c3.8-16.4,193.2-219.9,208.7-222.2
		C950,612.6,950.7,584,950.7,584z"/>
	<path class="st2" d="M950.7,584c12.1,25.9,228.8,258.4,245,263.8c-11.8,9.2-20.2,10.2-36.6,0c-3.8-16.4-193.5-219.9-209-222.2
		C950,612.6,950.7,584,950.7,584z"/>
	<path class="st2" d="M966.2,292.2c12.5,13.9-1,44.9-23.4,52.1C947.2,311.6,952.6,283,966.2,292.2"/>
	<path class="st2" d="M1076,350c16-28.1,16.9-38.8,19-57.9c11.5,1.9,20,11.2,20,28C1104.1,333.1,1099.3,337.8,1076,350z"/>
	<path class="st2" d="M829.5,350c11.6-22.7,9.1-41,4.2-47.3c-9.4-1.5-26.4,6.2-36.6,14.5c-10.3,8.3,14.5-0.3,20.3,5.4
		C823.2,328.2,829.5,350,829.5,350z"/>
	<path class="st2" d="M1050.4,409.1c40.7,28.4,51.3,56.9,41.4,60.2C1076.5,472.3,1070.2,445.7,1050.4,409.1z"/>
	<path class="st2" d="M839.8,420.3c0,7.3-10,11.4-12.8,24.3c2.8,10.1,3.6,15,0.2,24.4c-19.7,0-29.9-8.3-36.5-25.1
		C809.2,427.8,823.4,421,839.8,420.3z"/>
	<path class="st2" d="M1109.1,275.8c-27-1-134.9-12.8-157.6-9c-2.4-5.4-3.6-9.7-0.9-18.8C978.9,250,1092,267.7,1109.1,275.8z"/>
</g>
<g id="TYE_Proto_Jap_2" class="st0">
	<path class="st2" d="M1200.9,396.7c32.7-25.1,33.4-54.6,27.2-64.3c-18.7,13.3-170.5,37.4-264,38.6c-93.5,1.2-235.8-3.3-256.3-6.5
		c-5.4-11.6-6.6-20.7-6-32.1c-7.8,7.2-16.3,60.3-11.5,74.2c3.6-9.9,7.2-14.5,13.3-17.5c29.5,3.6,133.6,1.6,262.1-2.4
		c114.7-3.6,217.9-15.8,239.5-21.1C1209.4,376.4,1209.4,381.2,1200.9,396.7z"/>
	<path class="st2" d="M977.5,395.1c-13.4,3.7-21.1,3.8-35,0.3c8.1,30.1,22.5,304.9,22,334.5C979.6,692.3,976.6,422.5,977.5,395.1z"
		/>
	<path class="st2" d="M1053.4,482.7c-2.8,12.3-5.6,25.1-4.7,39.7c-52.4-12.7-70.3-10-109.5-7.9c-25.4,1.3-87.8,6.2-117.5,14.6
		c-7.7,4.2-12.1,8.4-16.2,16.3c-9.2-20.2-5.6-37.3,0-51.2c27.7,7.2,88,6.2,133.3,3.4c34.9-2.1,60.6-4.3,86.8-5.2
		C1052.1,491.4,1047.2,484.3,1053.4,482.7z"/>
	<path class="st2" d="M950.2,498.1C884,591.1,770.9,743.9,723.8,782.5c66.5-43.9,217.1-238.7,228.4-254
		C963.5,513.3,950.2,498.1,950.2,498.1z"/>
	<path class="st2" d="M983.8,528.9c73.6,77.1,115.8,133.7,179.1,218.7c-9.6,5.2-18.4,8.5-40.8,11c47.1,2.8,82.1,1.1,105.4-4.7
		c-11.5-2.8-16.1-8.3-21.6-24.1c-5.6,6.9-9,9-16.8,10.6C1173.7,729.4,1035.5,563.3,983.8,528.9z"/>
	<path class="st2" d="M1060.8,701.1c-3.4,10.5-2.4,16.9,1.4,25.6c-22-2.6-45.2-8.2-78.6-6.9s-41.8,3.1-52.7,6.5
		c-3.1-5.2-6.8-12.2-1-18.2c9.1,2.3,22.5,3,53.2,1.8C1013.6,708.8,1038.8,707.9,1060.8,701.1z"/>
	<path class="st2" d="M1112.2,399.1c40.7,28.4,51.3,56.9,41.4,60.2C1138.3,462.3,1131.9,435.7,1112.2,399.1z"/>
	<path class="st2" d="M812.4,411.2c0,7.3-10,11.4-12.8,24.3c2.8,10.1,3.6,15,0.2,24.4c-19.7,0-29.9-8.3-36.5-25.1
		C781.7,418.7,796,411.9,812.4,411.2z"/>
	<path class="st2" d="M1074.6,348.1c16-28.1,16.9-38.8,19-57.9c11.5,1.9,20,11.2,20,28C1102.8,331.2,1098,335.9,1074.6,348.1z"/>
	<path class="st2" d="M955.2,304c12.5,13.9-1,44.9-23.4,52.1C936.2,323.5,941.6,294.9,955.2,304"/>
	<path class="st2" d="M839.7,356.1c11.6-22.7,9.1-41,4.2-47.3c-9.4-1.5-26.4,6.2-36.6,14.5c-10.3,8.3,14.5-0.3,20.3,5.4
		C833.3,334.4,839.7,356.1,839.7,356.1z"/>
	<path class="st2" d="M1150.3,284.4c-27-1-134.9-12.8-157.6-9c-2.4-5.4-3.6-9.7-0.9-18.8C1020.1,258.6,1133.2,276.4,1150.3,284.4z"
		/>
</g>
<g id="TYE_Proto_Jap_3">
	<path class="st5" d="M1073.1,317.7c74-2.8,96.3-38.2,91.4-89.3c-11.9,9.6-147.2,41-206.5,41.9c-59.3,0.9-115.4-2.7-174.6-13
		c-0.6-11.2-3-18.2-5.9-28.8c-6.9,43.1-35.6,72.8-15.7,98.7c4.2,5.4,11.8,4.1,15-2.2c6-12.1,5.7-25.7,8.7-27.4
		c18.7,2.6,91,8.9,172.5,6c72.8-2.6,85.3-1.4,151.3-18C1101.5,295.4,1095.5,300.7,1073.1,317.7z"/>
	<path class="st5" d="M985,330.5c-8.6,2.5-35.3,3.8-44,0.6c4.2,24.4,11.9,304-1.1,387.7C991.4,640,983.6,352.4,985,330.5z"/>
	<path class="st5" d="M1095.9,425.8c-2.5,11.8-13.4,82.9-12.7,97c-46.2-12.1-82.3-13.2-123.2-14.4c-40.6-1.2-70.5-3.5-97.9,0.8
		c-4.2,2.5-14.6,11.6-22.7,19.9c-5.1,5.2-13.5,1.9-14.2-5.7c-2.4-24.9-1-53.5,2.8-63.9c24.4,6.9,92.1,11.2,132.1,8.4
		c30.8-2.1,64.8-2.4,87.8-3.3C1071.4,463.7,1090.4,427.4,1095.9,425.8z"/>
	<path class="st5" d="M949.7,515c-49.6,105.6-105.5,211.1-186.5,326c112.2-125.5,148.6-178.2,182.2-237.5
		C953.4,589.2,949.7,515,949.7,515z"/>
	<path class="st5" d="M960,521.9c60.3,103.4,92.8,186.6,130.1,289c-8.3,5.8-41.5,23.1-60.9,25.5c40.8,3.9,120.6,10.2,140.8,3.9
		c-9.9-3.3-13.6-52-18.3-70c-4.8,7.7-16.4,17.6-23.1,19.3C1071.8,669.4,1056.8,591,960,521.9z"/>
	<path class="st6" d="M1060.8,701.1c-3.4,10.5-2.4,16.9,1.4,25.6c-22-2.6-45.2-8.2-78.6-6.9s-41.8,3.1-52.7,6.5
		c-3.1-5.2-6.8-12.2-1-18.2c9.1,2.3,22.5,3,53.2,1.8C1013.6,708.8,1038.8,707.9,1060.8,701.1z"/>
	<path class="st6" d="M1047.2,243.8c11.6,7.5,20.5,10.8,29.1,13c8.6,29.8,3.7,55.4-2.8,68.4c-1.1,2.1-2.9,3.7-5,4.2
		c-2.4,0.6-5.8,1.4-9,0.9c-4.5-0.7-7.6-5.2-7.3-10.3C1053,298.2,1050.8,263.5,1047.2,243.8z"/>
	<path class="st6" d="M875.3,403.6c0,14.4-12.7,22.6-16.2,48.2c3.5,20.1,4.6,29.6,0.2,48.4c-25,0.1-38-16.5-46.3-49.7
		C836.4,418.4,854.5,404.9,875.3,403.6z"/>
	<path class="st6" d="M1027.5,406.2c15.3,42.8,14.4,50.5,9.3,85.7c10.4-12.2,27.3-17.3,43.6-19.9
		C1069.5,451.6,1052.1,427.3,1027.5,406.2z"/>
	<path class="st6" d="M949,327.3c-7.3-15-1.4-42.7-6.6-77.9c23.8,20.4,65.1,88.2,19.3,86.4C956.4,335.5,951.4,332.3,949,327.3z"/>
	<path class="st6" d="M854.2,337.9c10.6-35.7,15.4-68.4,7.4-80.1c-13-4.7-46.3,5.3-58.2,17c-12,11.7,26.2,3.4,35.2,14.3
		C847.6,300,854.2,337.9,854.2,337.9z"/>
	<path class="st6" d="M824.5,226c54.3-3.3,196.7-1.6,235.7,4c-1.6-4.2-7.8-25.2-6.4-30.9C1030.6,200.4,854.9,210.5,824.5,226z"/>
	<rect x="730.7" y="214.1" class="st7" width="458.7" height="652.8"/>
</g>
<g id="TYE_Proto_2" class="st0">
	<polygon id="T_1_" class="st2" points="700,350 1200,350 1200,400 975,400 975,850 925,850 925,400 700,400 	"/>
	<g id="E_middle" class="st8">
		<rect x="812.5" y="569.5" class="st5" width="275" height="50"/>
	</g>
	<rect id="E_small" x="863.4" y="800" class="st2" width="173.1" height="50"/>
	<polygon id="Y_1_" class="st2" points="1200,850 1150,850 950,625 750,850 700,850 950,575 	"/>
</g>
<g id="TYE_Proto_1" class="st0">
	<g id="T" class="st8">
		<polygon class="st5" points="700,350 1200,350 1200,400 975,400 975,850 925,850 925,400 700,400 		"/>
	</g>
	<g id="Y" class="st8">
		<polygon class="st5" points="1200,350 1150,350 950,575 750,350 700,350 950,625 		"/>
		<polygon class="st5" points="950,625 1150,850 1200,850 950,575 		"/>
	</g>
	<g id="E" class="st8">
		<polygon class="st5" points="975,850 975,350 700,350 700,400 925,400 925,575 700,575 700,625 925,625 925,800 700,800 700,850 
					"/>
	</g>
</g>
<g id="Circle" class="st0">
	<circle class="st9" cx="960" cy="540" r="372.1"/>
</g>
</svg>
